<svg width="24" height="26" viewBox="0 0 24 26" fill="none" xmlns="http://www.w3.org/2000/svg">
<path id="SF Symbol / bell.fill" d="M15.8842 21.5715L15.949 20.874H15.2485H8.75146H8.051L8.11577 21.5715C8.28457 23.3894 9.87956 24.949 11.9947 24.949C14.1191 24.949 15.7153 23.3907 15.8842 21.5715ZM3.60042 20.6988H20.3996C21 20.6988 21.5564 20.5457 21.976 20.2048C22.4094 19.8527 22.6384 19.3456 22.6384 18.778C22.6384 18.0311 22.2599 17.386 21.8475 16.8612C21.5296 16.4568 21.1338 16.0556 20.7726 15.6895C20.6671 15.5826 20.5645 15.4786 20.4677 15.3785C20.2373 15.1369 20.0479 14.7132 19.9108 14.13C19.7783 13.5661 19.7121 12.9326 19.6703 12.3374C19.5949 8.34806 18.5573 5.2397 15.5701 3.9944C15.0378 2.54094 13.7892 1.36158 11.9947 1.36158C10.2125 1.36158 8.95341 2.53839 8.42781 3.9953C5.44218 5.24119 4.40507 8.34903 4.32966 12.3375C4.28788 12.9326 4.2217 13.5661 4.08916 14.13C3.95231 14.7123 3.76329 15.1356 3.53336 15.3774C3.44584 15.4669 3.35418 15.5591 3.26024 15.6537C2.88619 16.0302 2.47607 16.443 2.14789 16.862C1.73576 17.3883 1.36158 18.0327 1.36158 18.778C1.36158 19.342 1.58523 19.8498 2.01887 20.2039C2.43845 20.5464 2.99615 20.6988 3.60042 20.6988Z" fill="#999999" stroke="#12522D" stroke-width="1.27685"/>
</svg>
