<svg width="34" height="35" viewBox="0 0 34 35" fill="none" xmlns="http://www.w3.org/2000/svg">
<g id="chat">
<path id="Vector" d="M17.0002 2.86523C24.8241 2.86523 31.1668 9.20786 31.1668 17.0319C31.1668 24.8559 24.8241 31.1986 17.0002 31.1986C14.7076 31.1986 12.4921 30.6526 10.5017 29.6232L5.0818 31.1352C4.13983 31.3983 3.16298 30.8479 2.89995 29.906C2.8129 29.5943 2.81294 29.2647 2.90001 28.9533L4.41253 23.5375C3.38085 21.5454 2.8335 19.3273 2.8335 17.0319C2.8335 9.20786 9.17613 2.86523 17.0002 2.86523ZM17.0002 4.99023C10.3497 4.99023 4.9585 10.3815 4.9585 17.0319C4.9585 19.1138 5.48659 21.1167 6.47862 22.8934L6.69204 23.2754L5.11569 28.9197L10.7634 27.3441L11.1452 27.557C12.9202 28.5467 14.9208 29.0736 17.0002 29.0736C23.6506 29.0736 29.0418 23.6823 29.0418 17.0319C29.0418 10.3815 23.6506 4.99023 17.0002 4.99023ZM12.396 18.4486H18.7686C19.3554 18.4486 19.8311 18.9243 19.8311 19.5111C19.8311 20.049 19.4313 20.4935 18.9127 20.5639L18.7686 20.5736H12.396C11.8092 20.5736 11.3335 20.0979 11.3335 19.5111C11.3335 18.9732 11.7332 18.5286 12.2518 18.4582L12.396 18.4486ZM12.396 13.4902H21.6107C22.1975 13.4902 22.6732 13.9659 22.6732 14.5527C22.6732 15.0906 22.2734 15.5352 21.7549 15.6056L21.6107 15.6152H12.396C11.8092 15.6152 11.3335 15.1395 11.3335 14.5527C11.3335 14.0148 11.7332 13.5703 12.2518 13.4999L12.396 13.4902Z" fill="#6C6C6C"/>
</g>
</svg>
