<svg width="34" height="34" viewBox="0 0 34 34" fill="none" xmlns="http://www.w3.org/2000/svg">
<g id="gg:profile">
<g id="Group">
<path id="Vector" fill-rule="evenodd" clip-rule="evenodd" d="M22.6673 12.7497C22.6673 14.2526 22.0703 15.6939 21.0076 16.7566C19.9449 17.8193 18.5035 18.4163 17.0007 18.4163C15.4978 18.4163 14.0564 17.8193 12.9937 16.7566C11.931 15.6939 11.334 14.2526 11.334 12.7497C11.334 11.2468 11.931 9.80544 12.9937 8.74274C14.0564 7.68003 15.4978 7.08301 17.0007 7.08301C18.5035 7.08301 19.9449 7.68003 21.0076 8.74274C22.0703 9.80544 22.6673 11.2468 22.6673 12.7497ZM19.834 12.7497C19.834 13.5011 19.5355 14.2218 19.0041 14.7531C18.4728 15.2845 17.7521 15.583 17.0007 15.583C16.2492 15.583 15.5285 15.2845 14.9972 14.7531C14.4658 14.2218 14.1673 13.5011 14.1673 12.7497C14.1673 11.9982 14.4658 11.2776 14.9972 10.7462C15.5285 10.2149 16.2492 9.91634 17.0007 9.91634C17.7521 9.91634 18.4728 10.2149 19.0041 10.7462C19.5355 11.2776 19.834 11.9982 19.834 12.7497Z" fill="black"/>
<path id="Vector_2" fill-rule="evenodd" clip-rule="evenodd" d="M17.0003 1.4165C8.39408 1.4165 1.41699 8.39359 1.41699 16.9998C1.41699 25.6061 8.39408 32.5832 17.0003 32.5832C25.6066 32.5832 32.5837 25.6061 32.5837 16.9998C32.5837 8.39359 25.6066 1.4165 17.0003 1.4165ZM4.25033 16.9998C4.25033 19.9607 5.26041 22.6863 6.95333 24.851C8.14224 23.2897 9.67602 22.0244 11.4349 21.1539C13.1937 20.2835 15.13 19.8315 17.0924 19.8332C19.0295 19.8313 20.9414 20.2717 22.6825 21.1206C24.4236 21.9696 25.9479 23.2047 27.1394 24.732C28.3669 23.1221 29.1933 21.2431 29.5504 19.2503C29.9075 17.2576 29.7849 15.2085 29.1929 13.2726C28.6008 11.3366 27.5562 9.56949 26.1456 8.11739C24.735 6.66529 22.9988 5.56997 21.0809 4.92206C19.1629 4.27414 17.1182 4.09226 15.116 4.39147C13.1137 4.69067 11.2115 5.46235 9.56675 6.64266C7.92197 7.82298 6.58189 9.37799 5.6574 11.179C4.73291 12.9801 4.25058 14.9754 4.25033 16.9998ZM17.0003 29.7498C14.0734 29.7542 11.2349 28.7473 8.96499 26.8995C9.87864 25.5915 11.0947 24.5236 12.5098 23.7866C13.9248 23.0496 15.4969 22.6654 17.0924 22.6665C18.668 22.6652 20.2211 23.0399 21.6228 23.7594C23.0245 24.4788 24.2343 25.5223 25.1518 26.8032C22.8643 28.711 19.979 29.754 17.0003 29.7498Z" fill="black"/>
</g>
</g>
</svg>
