<svg width="109" height="46" viewBox="0 0 109 46" fill="none" xmlns="http://www.w3.org/2000/svg">
<g id="Group 1">
<path id="Ellipse 1" d="M107.751 22.8963C107.751 24.0948 106.714 25.5414 104.038 27.0679C101.44 28.5502 97.6134 29.9184 92.7986 31.0802C83.1846 33.4 69.8514 34.8449 55.0879 34.8449C40.3245 34.8449 26.9913 33.4 17.3773 31.0802C12.5624 29.9184 8.73619 28.5502 6.13789 27.0679C3.46218 25.5414 2.42529 24.0948 2.42529 22.8963C2.42529 21.6978 3.46218 20.2512 6.13789 18.7248C8.73619 17.2425 12.5624 15.8743 17.3773 14.7125C26.9913 12.3927 40.3245 10.9478 55.0879 10.9478C69.8514 10.9478 83.1846 12.3927 92.7986 14.7125C97.6134 15.8743 101.44 17.2425 104.038 18.7248C106.714 20.2512 107.751 21.6978 107.751 22.8963Z" stroke="#2ECC71" stroke-width="2"/>
<path id="Ellipse 2" d="M106.64 32.8407C106.513 34.0187 105.338 35.256 102.522 36.265C99.7909 37.2436 95.856 37.8778 90.9652 38.1213C81.1994 38.6075 67.8452 37.5269 53.2292 34.7468C38.6133 31.9666 25.5665 28.0252 16.2944 23.9177C11.6508 21.8606 8.00719 19.785 5.59141 17.8272C3.1008 15.8089 2.23333 14.183 2.35993 13.005C2.48652 11.8271 3.66171 10.5897 6.47768 9.58074C9.20903 8.60209 13.1439 7.96796 18.0347 7.72446C27.8005 7.23824 41.1547 8.3188 55.7707 11.099C70.3866 13.8792 83.4334 17.8205 92.7055 21.928C97.3491 23.9851 100.993 26.0608 103.408 28.0185C105.899 30.0369 106.767 31.6628 106.64 32.8407Z" stroke="#2ECC71" stroke-width="2"/>
</g>
</svg>
