<svg width="180" height="76" viewBox="0 0 180 76" fill="none" xmlns="http://www.w3.org/2000/svg">
<g id="Group 1">
<path id="Ellipse 1" d="M178.588 38.102C178.588 40.465 176.573 43.021 172.128 45.5566C167.761 48.0479 161.376 50.3249 153.398 52.2499C137.458 56.096 115.387 58.4849 90.9707 58.4849C66.5548 58.4849 44.483 56.096 28.5435 52.2499C20.5659 50.3249 14.1801 48.0479 9.81302 45.5566C5.36851 43.021 3.35352 40.465 3.35352 38.102C3.35352 35.7389 5.36851 33.1829 9.81302 30.6474C14.1801 28.156 20.5659 25.8791 28.5435 23.9541C44.483 20.108 66.5548 17.7191 90.9707 17.7191C115.387 17.7191 137.458 20.108 153.398 23.9541C161.376 25.8791 167.761 28.156 172.128 30.6474C176.573 33.1829 178.588 35.7389 178.588 38.102Z" stroke="#2ECC71" stroke-width="2"/>
<path id="Ellipse 2" d="M176.743 54.6456C176.492 56.9764 174.231 59.1278 169.556 60.8026C164.967 62.4471 158.401 63.4989 150.299 63.9023C134.108 64.7084 112.003 62.9169 87.8319 58.3191C63.6607 53.7214 42.0637 47.2 26.6921 40.3904C18.9988 36.9823 12.9181 33.5251 8.85873 30.2354C4.72448 26.8851 3.00678 23.9767 3.25728 21.646C3.50777 19.3152 5.76924 17.1638 10.4436 15.489C15.0333 13.8445 21.5985 12.7927 29.7015 12.3893C45.8915 11.5832 67.9968 13.3747 92.168 17.9725C116.339 22.5702 137.936 29.0916 153.308 35.9011C161.001 39.3093 167.082 42.7665 171.141 46.0562C175.275 49.4065 176.993 52.3148 176.743 54.6456Z" stroke="#2ECC71" stroke-width="2"/>
</g>
</svg>
